<svg width="25" height="27" viewBox="0 0 25 27" xmlns="http://www.w3.org/2000/svg">
<g clip-path="url(#clip0_16_4)" filter="url(#filter0_d_16_4)">
<path d="M9.33333 6.66667H14.3333V7.77778H9.33333V6.66667Z"/>
<path d="M9.33333 8.88889H14.3333V10H9.33333V8.88889Z"/>
<path d="M9.33333 11.1111H14.3333V12.2222H9.33333V11.1111Z"/>
<path d="M9.33333 13.3333H14.3333V14.4444H9.33333V13.3333Z"/>
<path d="M7.11111 4.44444H8.22222V5.55555H7.11111V4.44444Z"/>
<path d="M7.11111 6.66667H8.22222V7.77778H7.11111V6.66667Z"/>
<path d="M7.11111 8.88889H8.22222V10H7.11111V8.88889Z"/>
<path d="M7.11111 11.1111H8.22222V12.2222H7.11111V11.1111Z"/>
<path d="M7.11111 13.3333H8.22222V14.4444H7.11111V13.3333Z"/>
<path d="M9.33333 4.44444V5.55555H14.1444C13.9258 5.21155 13.7592 4.83714 13.65 4.44444H9.33333Z"/>
<path d="M16.5555 7.34445V17.7778H5.44444V2.22223H13.6556C13.763 1.82984 13.9278 1.45544 14.1444 1.11111H5.44444C5.14975 1.11111 4.86714 1.22818 4.65877 1.43655C4.45039 1.64493 4.33333 1.92754 4.33333 2.22223V17.7778C4.33333 18.0725 4.45039 18.3551 4.65877 18.5635C4.86714 18.7718 5.14975 18.8889 5.44444 18.8889H16.5555C16.8502 18.8889 17.1328 18.7718 17.3412 18.5635C17.5496 18.3551 17.6667 18.0725 17.6667 17.7778V7.5C17.291 7.49855 16.9172 7.44622 16.5555 7.34445Z"/>
<path d="M17.6667 6.11111C19.2008 6.11111 20.4444 4.86746 20.4444 3.33333C20.4444 1.79921 19.2008 0.555557 17.6667 0.555557C16.1325 0.555557 14.8889 1.79921 14.8889 3.33333C14.8889 4.86746 16.1325 6.11111 17.6667 6.11111Z"/>
</g>
<defs>
<filter id="filter0_d_16_4" x="-3" y="0" width="28" height="28" filterUnits="userSpaceOnUse" color-interpolation-filters="sRGB">
<feFlood flood-opacity="0" result="BackgroundImageFix"/>
<feColorMatrix in="SourceAlpha" type="matrix" values="0 0 0 0 0 0 0 0 0 0 0 0 0 0 0 0 0 0 127 0" result="hardAlpha"/>
<feOffset dy="4"/>
<feGaussianBlur stdDeviation="2"/>
<feComposite in2="hardAlpha" operator="out"/>
<feColorMatrix type="matrix" values="0 0 0 0 0 0 0 0 0 0 0 0 0 0 0 0 0 0 0.25 0"/>
<feBlend mode="normal" in2="BackgroundImageFix" result="effect1_dropShadow_16_4"/>
<feBlend mode="normal" in="SourceGraphic" in2="effect1_dropShadow_16_4" result="shape"/>
</filter>
<clipPath id="clip0_16_4">
<rect width="20" height="20" fill="white" transform="translate(1)"/>
</clipPath>
</defs>
</svg>
