<svg xmlns="http://www.w3.org/2000/svg" width="31.041" height="31.004" viewBox="0 0 31.041 31.004"><path d="M14.786,30a1.3,1.3,0,0,1-.672-.726c-.585-1.3-1.19-2.6-1.787-3.9-.036-.079-.067-.159-.119-.285a10.762,10.762,0,0,0,5.613,0c-.044.116-.07.2-.107.283-.592,1.291-1.19,2.578-1.773,3.872a1.317,1.317,0,0,1-.685.751Zm9.773-4.241c-1.393-.524-2.791-1.038-4.186-1.556-.054-.02-.106-.046-.2-.086a10.689,10.689,0,0,0,3.968-3.961c.055.121.1.208.135.3.505,1.357,1.005,2.716,1.515,4.071a.934.934,0,0,1-.151,1.083.809.809,0,0,1-.594.252A1.412,1.412,0,0,1,24.558,25.759ZM4.152,25.084a1,1,0,0,1,.057-.427q.8-2.19,1.618-4.375a.735.735,0,0,1,.074-.115,10.674,10.674,0,0,0,3.983,3.96l-1.209.448c-1.086.4-2.17.809-3.258,1.206a1.2,1.2,0,0,1-.41.076A.826.826,0,0,1,4.152,25.084Zm10.866-1.351a8.726,8.726,0,1,1,8.745-8.716,8.733,8.733,0,0,1-8.745,8.716Zm-12.48-7c-.6-.276-1.2-.567-1.809-.825A1.269,1.269,0,0,1,0,15.241v-.469a1.309,1.309,0,0,1,.755-.682c1.281-.574,2.554-1.165,3.83-1.748.094-.043.191-.08.331-.14a10.725,10.725,0,0,0,0,5.622ZM25.12,12.19c.472.214.9.405,1.325.6.948.433,1.892.874,2.843,1.3a1.311,1.311,0,0,1,.753.685v.469a1.319,1.319,0,0,1-.753.685c-1.279.575-2.551,1.163-3.827,1.746-.1.044-.195.083-.338.144A10.735,10.735,0,0,0,25.12,12.19ZM4.695,6.681c-.166-.446-.337-.891-.5-1.34a.85.85,0,0,1,.184-.922A.819.819,0,0,1,5.3,4.193C6.8,4.737,8.29,5.3,9.785,5.855c.017.006.029.025.06.053A10.651,10.651,0,0,0,5.884,9.881Zm15.466-.793,2.145-.795q1.163-.431,2.326-.864a.886.886,0,0,1,1,.167.87.87,0,0,1,.188,1q-.807,2.173-1.612,4.346a.84.84,0,0,1-.069.109A10.7,10.7,0,0,0,20.161,5.888ZM12.294,4.711Q13.237,2.656,14.184.6A.852.852,0,0,1,15.347.085,1.011,1.011,0,0,1,15.8.509c.679,1.433,1.333,2.877,1.994,4.318a.369.369,0,0,1,.008.086,10.718,10.718,0,0,0-5.584.008C12.253,4.827,12.268,4.767,12.294,4.711Z" transform="translate(0.5 0.504)" fill="#ffeb00" stroke="rgba(0,0,0,0)" stroke-width="1"/></svg>