<svg xmlns="http://www.w3.org/2000/svg" width="28.453" height="30" viewBox="0 0 28.453 30"><path d="M69.661,195.292c-.413-.057-.826-.11-1.238-.173a14.68,14.68,0,0,1-7.482-3.424,14.446,14.446,0,0,1-4.972-8.491A15.017,15.017,0,0,1,67.9,165.563a17.641,17.641,0,0,1,5.137-.157c.242.024.485.042.82.071A12.184,12.184,0,0,0,68.04,172.6a11.221,11.221,0,0,0,.9,9.044,11.431,11.431,0,0,0,6.574,5.508,12.444,12.444,0,0,0,8.609-.232c-.377.64-.722,1.3-1.138,1.917a14.448,14.448,0,0,1-6.957,5.51,14.016,14.016,0,0,1-3.893.886,1.679,1.679,0,0,0-.249.058Z" transform="translate(-55.675 -165.292)" fill="#3e4b5d"/></svg>